<mxfile host="65bd71144e">
    <diagram id="jxm0-1OfX1ueo7GW3zrK" name="Page-1">
        <mxGraphModel dx="889" dy="455" grid="1" gridSize="10" guides="1" tooltips="1" connect="1" arrows="1" fold="1" page="1" pageScale="1" pageWidth="3300" pageHeight="4681" math="0" shadow="0">
            <root>
                <mxCell id="0"/>
                <mxCell id="1" parent="0"/>
                <mxCell id="7" value="ProcessChain" style="swimlane;fontStyle=1;align=center;verticalAlign=top;childLayout=stackLayout;horizontal=1;startSize=26;horizontalStack=0;resizeParent=1;resizeParentMax=0;resizeLast=0;collapsible=1;marginBottom=0;" parent="1" vertex="1">
                    <mxGeometry x="390" y="10" width="380" height="320" as="geometry"/>
                </mxCell>
                <mxCell id="9" value="" style="line;strokeWidth=1;fillColor=none;align=left;verticalAlign=middle;spacingTop=-1;spacingLeft=3;spacingRight=3;rotatable=0;labelPosition=right;points=[];portConstraint=eastwest;strokeColor=inherit;" parent="7" vertex="1">
                    <mxGeometry y="26" width="380" height="8" as="geometry"/>
                </mxCell>
                <mxCell id="8" value="+ id: UUID&#10;+ state: ProcessChainState&#10;+ creation_date: Date&#10;+ created_user_id: UUID&#10;+ pipeline_id: UUID&#10;+ dag_id: UUID&#10;+ druid_ingestion_id: UUID&#10;+ permissions: List&lt;Permission&gt;&#10;+ last_run_date: Date&#10;+ description: Description (todo)" style="text;strokeColor=none;fillColor=none;align=left;verticalAlign=top;spacingLeft=4;spacingRight=4;overflow=hidden;rotatable=0;points=[[0,0.5],[1,0.5]];portConstraint=eastwest;" parent="7" vertex="1">
                    <mxGeometry y="34" width="380" height="174" as="geometry"/>
                </mxCell>
                <mxCell id="10" value="+ addProcessChain()&#10;+ editProcessChain(id: UUID)&#10;+ viewProcessChain(id: UUID)&#10;+ disableProcessChain(id: UUID)&#10;+ runProcessChain(id: UUID)&#10;+ getDescription" style="text;strokeColor=none;fillColor=none;align=left;verticalAlign=top;spacingLeft=4;spacingRight=4;overflow=hidden;rotatable=0;points=[[0,0.5],[1,0.5]];portConstraint=eastwest;" parent="7" vertex="1">
                    <mxGeometry y="208" width="380" height="112" as="geometry"/>
                </mxCell>
                <mxCell id="16" value="Pipeline" style="swimlane;fontStyle=1;align=center;verticalAlign=top;childLayout=stackLayout;horizontal=1;startSize=26;horizontalStack=0;resizeParent=1;resizeParentMax=0;resizeLast=0;collapsible=1;marginBottom=0;" parent="1" vertex="1">
                    <mxGeometry x="830" y="220" width="250" height="230" as="geometry"/>
                </mxCell>
                <mxCell id="17" value="+ id: UUID&#10;+ template_id:UUID&#10;+ state: PipelineState&#10;+ creation_date: Date&#10;+ created_user_id: UUID&#10;+ path: string&#10;+ source_path: string&#10;+ environmentPath: string&#10;+ parquetOutputPath: string&#10;&#10;" style="text;strokeColor=none;fillColor=none;align=left;verticalAlign=top;spacingLeft=4;spacingRight=4;overflow=hidden;rotatable=0;points=[[0,0.5],[1,0.5]];portConstraint=eastwest;" parent="16" vertex="1">
                    <mxGeometry y="26" width="250" height="144" as="geometry"/>
                </mxCell>
                <mxCell id="18" value="" style="line;strokeWidth=1;fillColor=none;align=left;verticalAlign=middle;spacingTop=-1;spacingLeft=3;spacingRight=3;rotatable=0;labelPosition=right;points=[];portConstraint=eastwest;strokeColor=inherit;" parent="16" vertex="1">
                    <mxGeometry y="170" width="250" height="8" as="geometry"/>
                </mxCell>
                <mxCell id="19" value="+ addPipeline()&#10;+ editPipeline()&#10;" style="text;strokeColor=none;fillColor=none;align=left;verticalAlign=top;spacingLeft=4;spacingRight=4;overflow=hidden;rotatable=0;points=[[0,0.5],[1,0.5]];portConstraint=eastwest;" parent="16" vertex="1">
                    <mxGeometry y="178" width="250" height="52" as="geometry"/>
                </mxCell>
                <mxCell id="20" value="ProcessChainState" style="swimlane;fontStyle=1;align=center;verticalAlign=top;childLayout=stackLayout;horizontal=1;startSize=26;horizontalStack=0;resizeParent=1;resizeParentMax=0;resizeLast=0;collapsible=1;marginBottom=0;" parent="1" vertex="1">
                    <mxGeometry x="30" y="480" width="330" height="108" as="geometry"/>
                </mxCell>
                <mxCell id="21" value="+ id: UUID&#10;+ name: State&#10;&#10;" style="text;strokeColor=none;fillColor=none;align=left;verticalAlign=top;spacingLeft=4;spacingRight=4;overflow=hidden;rotatable=0;points=[[0,0.5],[1,0.5]];portConstraint=eastwest;" parent="20" vertex="1">
                    <mxGeometry y="26" width="330" height="74" as="geometry"/>
                </mxCell>
                <mxCell id="22" value="" style="line;strokeWidth=1;fillColor=none;align=left;verticalAlign=middle;spacingTop=-1;spacingLeft=3;spacingRight=3;rotatable=0;labelPosition=right;points=[];portConstraint=eastwest;strokeColor=inherit;" parent="20" vertex="1">
                    <mxGeometry y="100" width="330" height="8" as="geometry"/>
                </mxCell>
                <mxCell id="24" value="&lt;&lt;enumaration&gt;&gt;&#10;State" style="swimlane;fontStyle=0;childLayout=stackLayout;horizontal=1;startSize=26;fillColor=none;horizontalStack=0;resizeParent=1;resizeParentMax=0;resizeLast=0;collapsible=1;marginBottom=0;" parent="1" vertex="1">
                    <mxGeometry x="430" y="480" width="200" height="152" as="geometry"/>
                </mxCell>
                <mxCell id="25" value="DataLoading&#10;" style="text;strokeColor=none;fillColor=none;align=left;verticalAlign=top;spacingLeft=4;spacingRight=4;overflow=hidden;rotatable=0;points=[[0,0.5],[1,0.5]];portConstraint=eastwest;" parent="24" vertex="1">
                    <mxGeometry y="26" width="200" height="26" as="geometry"/>
                </mxCell>
                <mxCell id="26" value="DataIntegration&#10;Scheduling&#10;&#10;" style="text;strokeColor=none;fillColor=none;align=left;verticalAlign=top;spacingLeft=4;spacingRight=4;overflow=hidden;rotatable=0;points=[[0,0.5],[1,0.5]];portConstraint=eastwest;" parent="24" vertex="1">
                    <mxGeometry y="52" width="200" height="38" as="geometry"/>
                </mxCell>
                <mxCell id="27" value="DruidIngestion&#10;Dashboarding" style="text;strokeColor=none;fillColor=none;align=left;verticalAlign=top;spacingLeft=4;spacingRight=4;overflow=hidden;rotatable=0;points=[[0,0.5],[1,0.5]];portConstraint=eastwest;" parent="24" vertex="1">
                    <mxGeometry y="90" width="200" height="62" as="geometry"/>
                </mxCell>
                <mxCell id="29" value="" style="line;strokeWidth=1;fillColor=none;align=left;verticalAlign=middle;spacingTop=-1;spacingLeft=3;spacingRight=3;rotatable=0;labelPosition=right;points=[];portConstraint=eastwest;strokeColor=inherit;" parent="1" vertex="1">
                    <mxGeometry x="360" y="540" width="70" height="8" as="geometry"/>
                </mxCell>
                <mxCell id="30" value="Permission" style="swimlane;fontStyle=1;align=center;verticalAlign=top;childLayout=stackLayout;horizontal=1;startSize=26;horizontalStack=0;resizeParent=1;resizeParentMax=0;resizeLast=0;collapsible=1;marginBottom=0;" vertex="1" parent="1">
                    <mxGeometry x="20" y="50" width="330" height="108" as="geometry"/>
                </mxCell>
                <mxCell id="31" value="+ id: UUID&#10;+ name: PermissionEnum&#10;&#10;" style="text;strokeColor=none;fillColor=none;align=left;verticalAlign=top;spacingLeft=4;spacingRight=4;overflow=hidden;rotatable=0;points=[[0,0.5],[1,0.5]];portConstraint=eastwest;" vertex="1" parent="30">
                    <mxGeometry y="26" width="330" height="74" as="geometry"/>
                </mxCell>
                <mxCell id="32" value="" style="line;strokeWidth=1;fillColor=none;align=left;verticalAlign=middle;spacingTop=-1;spacingLeft=3;spacingRight=3;rotatable=0;labelPosition=right;points=[];portConstraint=eastwest;strokeColor=inherit;" vertex="1" parent="30">
                    <mxGeometry y="100" width="330" height="8" as="geometry"/>
                </mxCell>
                <mxCell id="33" value="&lt;&lt;enumaration&gt;&gt;&#10;PermissionEnum" style="swimlane;fontStyle=0;childLayout=stackLayout;horizontal=1;startSize=26;fillColor=none;horizontalStack=0;resizeParent=1;resizeParentMax=0;resizeLast=0;collapsible=1;marginBottom=0;" vertex="1" parent="1">
                    <mxGeometry x="120" y="190" width="130" height="120" as="geometry"/>
                </mxCell>
                <mxCell id="34" value="Read&#10;Edit&#10;Run&#10;Delete&#10;Full" style="text;strokeColor=none;fillColor=none;align=left;verticalAlign=top;spacingLeft=4;spacingRight=4;overflow=hidden;rotatable=0;points=[[0,0.5],[1,0.5]];portConstraint=eastwest;" vertex="1" parent="33">
                    <mxGeometry y="26" width="130" height="94" as="geometry"/>
                </mxCell>
                <mxCell id="37" value="PipelineTemplate" style="swimlane;fontStyle=1;align=center;verticalAlign=top;childLayout=stackLayout;horizontal=1;startSize=26;horizontalStack=0;resizeParent=1;resizeParentMax=0;resizeLast=0;collapsible=1;marginBottom=0;" vertex="1" parent="1">
                    <mxGeometry x="1110" y="30" width="250" height="260" as="geometry"/>
                </mxCell>
                <mxCell id="38" value="+ id: UUID&#10;+ name: string&#10;+ path: string&#10;+ create_user&#10;+ creation_date&#10;+ permissions: List&lt;Permission&gt;" style="text;strokeColor=none;fillColor=none;align=left;verticalAlign=top;spacingLeft=4;spacingRight=4;overflow=hidden;rotatable=0;points=[[0,0.5],[1,0.5]];portConstraint=eastwest;" vertex="1" parent="37">
                    <mxGeometry y="26" width="250" height="144" as="geometry"/>
                </mxCell>
                <mxCell id="39" value="" style="line;strokeWidth=1;fillColor=none;align=left;verticalAlign=middle;spacingTop=-1;spacingLeft=3;spacingRight=3;rotatable=0;labelPosition=right;points=[];portConstraint=eastwest;strokeColor=inherit;" vertex="1" parent="37">
                    <mxGeometry y="170" width="250" height="8" as="geometry"/>
                </mxCell>
                <mxCell id="40" value="+ createTemplate()&#10;+ editTemplate(id: UUID)&#10;+ saveTemplate()&#10;+ getTemplateDescription(id:UUID)&#10;" style="text;strokeColor=none;fillColor=none;align=left;verticalAlign=top;spacingLeft=4;spacingRight=4;overflow=hidden;rotatable=0;points=[[0,0.5],[1,0.5]];portConstraint=eastwest;" vertex="1" parent="37">
                    <mxGeometry y="178" width="250" height="82" as="geometry"/>
                </mxCell>
                <mxCell id="41" value="" style="endArrow=none;html=1;entryX=0.5;entryY=1;entryDx=0;entryDy=0;exitX=0.5;exitY=0;exitDx=0;exitDy=0;" edge="1" parent="1" source="33" target="30">
                    <mxGeometry width="50" height="50" relative="1" as="geometry">
                        <mxPoint x="260" y="240" as="sourcePoint"/>
                        <mxPoint x="310" y="190" as="targetPoint"/>
                    </mxGeometry>
                </mxCell>
            </root>
        </mxGraphModel>
    </diagram>
</mxfile>